<svg width="128" height="128" viewBox="0 0 128 128" fill="none" xmlns="http://www.w3.org/2000/svg">
<path d="M82.83 101.17C83.2016 101.542 83.4964 101.983 83.6976 102.468C83.8987 102.954 84.0022 103.474 84.0022 104C84.0022 104.526 83.8987 105.046 83.6976 105.532C83.4964 106.017 83.2016 106.458 82.83 106.83C82.4584 107.202 82.0172 107.496 81.5316 107.698C81.046 107.899 80.5256 108.002 80 108.002C79.4744 108.002 78.954 107.899 78.4684 107.698C77.9828 107.496 77.5416 107.202 77.17 106.83L37.17 66.83C36.7981 66.4585 36.5031 66.0173 36.3018 65.5318C36.1005 65.0462 35.9969 64.5257 35.9969 64C35.9969 63.4743 36.1005 62.9538 36.3018 62.4682C36.5031 61.9826 36.7981 61.5415 37.17 61.17L77.17 21.17C77.9206 20.4194 78.9385 19.9978 80 19.9978C81.0615 19.9978 82.0794 20.4194 82.83 21.17C83.5806 21.9206 84.0022 22.9385 84.0022 24C84.0022 25.0615 83.5806 26.0794 82.83 26.83L45.655 64L82.83 101.17Z" fill="black"/>
</svg>
