<svg width="128" height="128" viewBox="0 0 128 128" fill="none" xmlns="http://www.w3.org/2000/svg">
<path d="M42.6667 74.6667C41.1556 74.6667 39.8898 74.1547 38.8693 73.1307C37.8489 72.1067 37.3369 70.8409 37.3333 69.3334C37.3333 67.8222 37.8453 66.5565 38.8693 65.536C39.8933 64.5156 41.1591 64.0036 42.6667 64C44.1778 64 45.4453 64.512 46.4693 65.536C47.4933 66.56 48.0036 67.8258 48 69.3334C48 70.8445 47.488 72.112 46.464 73.136C45.44 74.16 44.1742 74.6702 42.6667 74.6667ZM64 74.6667C62.4889 74.6667 61.2231 74.1547 60.2027 73.1307C59.1822 72.1067 58.6702 70.8409 58.6667 69.3334C58.6667 67.8222 59.1787 66.5565 60.2027 65.536C61.2267 64.5156 62.4924 64.0036 64 64C65.5111 64 66.7787 64.512 67.8027 65.536C68.8267 66.56 69.3369 67.8258 69.3333 69.3334C69.3333 70.8445 68.8213 72.112 67.7973 73.136C66.7733 74.16 65.5076 74.6702 64 74.6667ZM85.3333 74.6667C83.8222 74.6667 82.5564 74.1547 81.536 73.1307C80.5156 72.1067 80.0036 70.8409 80 69.3334C80 67.8222 80.512 66.5565 81.536 65.536C82.56 64.5156 83.8258 64.0036 85.3333 64C86.8444 64 88.112 64.512 89.136 65.536C90.16 66.56 90.6702 67.8258 90.6667 69.3334C90.6667 70.8445 90.1547 72.112 89.1307 73.136C88.1067 74.16 86.8409 74.6702 85.3333 74.6667ZM26.6667 117.333C23.7333 117.333 21.2231 116.29 19.136 114.203C17.0489 112.116 16.0036 109.604 16 106.667V32C16 29.0667 17.0453 26.5565 19.136 24.4694C21.2267 22.3822 23.7369 21.3369 26.6667 21.3334H32V16C32 14.4889 32.512 13.2231 33.536 12.2027C34.56 11.1822 35.8258 10.6702 37.3333 10.6667C38.8444 10.6667 40.112 11.1787 41.136 12.2027C42.16 13.2267 42.6702 14.4925 42.6667 16V21.3334H85.3333V16C85.3333 14.4889 85.8453 13.2231 86.8693 12.2027C87.8933 11.1822 89.1591 10.6702 90.6667 10.6667C92.1778 10.6667 93.4453 11.1787 94.4693 12.2027C95.4933 13.2267 96.0036 14.4925 96 16V21.3334H101.333C104.267 21.3334 106.779 22.3787 108.869 24.4694C110.96 26.56 112.004 29.0702 112 32V106.667C112 109.6 110.956 112.112 108.869 114.203C106.782 116.293 104.27 117.337 101.333 117.333H26.6667ZM26.6667 106.667H101.333V53.3334H26.6667V106.667Z" fill="black"/>
</svg>
