<svg width="128" height="128" viewBox="0 0 128 128" fill="none" xmlns="http://www.w3.org/2000/svg">
<path d="M56.5333 71.4667L45.0667 60C44.0889 59.0222 42.8444 58.5333 41.3333 58.5333C39.8222 58.5333 38.5778 59.0222 37.6 60C36.6222 60.9778 36.1333 62.2222 36.1333 63.7333C36.1333 65.2444 36.6222 66.4889 37.6 67.4667L52.8 82.6667C53.8667 83.7333 55.1111 84.2667 56.5333 84.2667C57.9556 84.2667 59.2 83.7333 60.2667 82.6667L90.4 52.5333C91.3778 51.5556 91.8667 50.3111 91.8667 48.8C91.8667 47.2889 91.3778 46.0444 90.4 45.0667C89.4222 44.0889 88.1778 43.6 86.6667 43.6C85.1556 43.6 83.9111 44.0889 82.9333 45.0667L56.5333 71.4667ZM26.6667 112C23.7333 112 21.2231 110.956 19.136 108.869C17.0489 106.782 16.0036 104.27 16 101.333V26.6667C16 23.7333 17.0453 21.2231 19.136 19.136C21.2267 17.0489 23.7369 16.0036 26.6667 16H101.333C104.267 16 106.779 17.0453 108.869 19.136C110.96 21.2267 112.004 23.7369 112 26.6667V101.333C112 104.267 110.956 106.779 108.869 108.869C106.782 110.96 104.27 112.004 101.333 112H26.6667Z" fill="black"/>
</svg>
