<svg width="128" height="128" viewBox="0 0 128 128" fill="none" xmlns="http://www.w3.org/2000/svg">
<g clip-path="url(#clip0_148_223)">
<path d="M64 10.6667C93.456 10.6667 117.333 34.544 117.333 64C117.333 93.456 93.456 117.333 64 117.333C34.544 117.333 10.6667 93.456 10.6667 64C10.6667 34.544 34.544 10.6667 64 10.6667ZM64 32C62.5855 32 61.229 32.5619 60.2288 33.5621C59.2286 34.5623 58.6667 35.9189 58.6667 37.3334V64C58.667 65.4144 59.2291 66.7707 60.2293 67.7707L76.2293 83.7707C77.2352 84.7422 78.5824 85.2798 79.9808 85.2676C81.3792 85.2555 82.7169 84.6946 83.7057 83.7057C84.6945 82.7169 85.2554 81.3792 85.2676 79.9808C85.2797 78.5824 84.7422 77.2352 83.7707 76.2294L69.3333 61.792V37.3334C69.3333 35.9189 68.7714 34.5623 67.7712 33.5621C66.771 32.5619 65.4145 32 64 32Z" fill="black"/>
</g>
<defs>
<clipPath id="clip0_148_223">
<rect width="128" height="128" fill="white"/>
</clipPath>
</defs>
</svg>
