<svg width="128" height="128" viewBox="0 0 128 128" fill="none" xmlns="http://www.w3.org/2000/svg">
<g clip-path="url(#clip0_187_328)">
<path d="M64 70.4C62.1867 70.4 60.6677 69.7856 59.4432 68.5568C58.2187 67.328 57.6043 65.8091 57.6 64C57.6 62.1867 58.2144 60.6677 59.4432 59.4432C60.672 58.2187 62.1909 57.6043 64 57.6C65.8133 57.6 67.3344 58.2144 68.5632 59.4432C69.792 60.672 70.4043 62.1909 70.4 64C70.4 65.8133 69.7856 67.3344 68.5568 68.5632C67.328 69.792 65.8091 70.4043 64 70.4ZM64 128C55.1467 128 46.8267 126.319 39.04 122.957C31.2533 119.595 24.48 115.036 18.72 109.28C12.96 103.52 8.40107 96.7467 5.0432 88.96C1.68533 81.1733 0.00426667 72.8533 0 64C0 55.1467 1.68107 46.8267 5.0432 39.04C8.40533 31.2533 12.9643 24.48 18.72 18.72C24.48 12.96 31.2533 8.40107 39.04 5.0432C46.8267 1.68533 55.1467 0.00426667 64 0C72.8533 0 81.1733 1.68107 88.96 5.0432C96.7467 8.40533 103.52 12.9643 109.28 18.72C115.04 24.48 119.601 31.2533 122.963 39.04C126.325 46.8267 128.004 55.1467 128 64C128 72.8533 126.319 81.1733 122.957 88.96C119.595 96.7467 115.036 103.52 109.28 109.28C103.52 115.04 96.7467 119.601 88.96 122.963C81.1733 126.325 72.8533 128.004 64 128ZM64 115.2C78.2933 115.2 90.4 110.24 100.32 100.32C110.24 90.4 115.2 78.2933 115.2 64C115.2 49.7067 110.24 37.6 100.32 27.68C90.4 17.76 78.2933 12.8 64 12.8C49.7067 12.8 37.6 17.76 27.68 27.68C17.76 37.6 12.8 49.7067 12.8 64C12.8 78.2933 17.76 90.4 27.68 100.32C37.6 110.24 49.7067 115.2 64 115.2ZM64 115.2C49.7067 115.2 37.6 110.24 27.68 100.32C17.76 90.4 12.8 78.2933 12.8 64C12.8 49.7067 17.76 37.6 27.68 27.68C37.6 17.76 49.7067 12.8 64 12.8C78.2933 12.8 90.4 17.76 100.32 27.68C110.24 37.6 115.2 49.7067 115.2 64C115.2 78.2933 110.24 90.4 100.32 100.32C90.4 110.24 78.2933 115.2 64 115.2ZM74.72 77.76C75.36 77.44 75.9467 77.0133 76.48 76.48C77.0133 75.9467 77.44 75.36 77.76 74.72L96.48 34.72C97.0133 33.6533 96.8811 32.7189 96.0832 31.9168C95.2853 31.1147 94.3509 30.9824 93.28 31.52L53.28 50.24C52.64 50.56 52.0533 50.9867 51.52 51.52C50.9867 52.0533 50.56 52.64 50.24 53.28L31.52 93.28C30.9867 94.3467 31.1211 95.2811 31.9232 96.0832C32.7253 96.8853 33.6576 97.0176 34.72 96.48L74.72 77.76Z" fill="black"/>
</g>
<defs>
<clipPath id="clip0_187_328">
<rect width="128" height="128" fill="white"/>
</clipPath>
</defs>
</svg>
