<svg width="25" height="24" viewBox="0 0 25 24" fill="none" xmlns="http://www.w3.org/2000/svg">
<g clip-path="url(#clip0_187_591)">
<path d="M12.5 13.2C12.16 13.2 11.8752 13.0848 11.6456 12.8544C11.416 12.624 11.3008 12.3392 11.3 12C11.3 11.66 11.4152 11.3752 11.6456 11.1456C11.876 10.916 12.1608 10.8008 12.5 10.8C12.84 10.8 13.1252 10.9152 13.3556 11.1456C13.586 11.376 13.7008 11.6608 13.7 12C13.7 12.34 13.5848 12.6252 13.3544 12.8556C13.124 13.086 12.8392 13.2008 12.5 13.2ZM12.5 24C10.84 24 9.28 23.6848 7.82 23.0544C6.36 22.424 5.09 21.5692 4.01 20.49C2.93 19.41 2.0752 18.14 1.4456 16.68C0.816 15.22 0.5008 13.66 0.5 12C0.5 10.34 0.8152 8.78 1.4456 7.32C2.076 5.86 2.9308 4.59 4.01 3.51C5.09 2.43 6.36 1.5752 7.82 0.9456C9.28 0.316 10.84 0.0008 12.5 0C14.16 0 15.72 0.3152 17.18 0.9456C18.64 1.576 19.91 2.4308 20.99 3.51C22.07 4.59 22.9252 5.86 23.5556 7.32C24.186 8.78 24.5008 10.34 24.5 12C24.5 13.66 24.1848 15.22 23.5544 16.68C22.924 18.14 22.0692 19.41 20.99 20.49C19.91 21.57 18.64 22.4252 17.18 23.0556C15.72 23.686 14.16 24.0008 12.5 24ZM12.5 21.6C15.18 21.6 17.45 20.67 19.31 18.81C21.17 16.95 22.1 14.68 22.1 12C22.1 9.32 21.17 7.05 19.31 5.19C17.45 3.33 15.18 2.4 12.5 2.4C9.82 2.4 7.55 3.33 5.69 5.19C3.83 7.05 2.9 9.32 2.9 12C2.9 14.68 3.83 16.95 5.69 18.81C7.55 20.67 9.82 21.6 12.5 21.6ZM7.01 18.09L14.51 14.58C14.63 14.52 14.74 14.44 14.84 14.34C14.94 14.24 15.02 14.13 15.08 14.01L18.59 6.51C18.69 6.31 18.6652 6.1348 18.5156 5.9844C18.366 5.834 18.1908 5.8092 17.99 5.91L10.49 9.42C10.37 9.48 10.26 9.56 10.16 9.66C10.06 9.76 9.98 9.87 9.92 9.99L6.41 17.49C6.31 17.69 6.3352 17.8652 6.4856 18.0156C6.636 18.166 6.8108 18.1908 7.01 18.09Z" fill="white"/>
</g>
<defs>
<clipPath id="clip0_187_591">
<rect width="24" height="24" fill="white" transform="translate(0.5)"/>
</clipPath>
</defs>
</svg>
