<svg width="128" height="128" viewBox="0 0 128 128" fill="none" xmlns="http://www.w3.org/2000/svg">
<path d="M48 96H80C81.5111 96 82.7787 95.488 83.8027 94.464C84.8267 93.44 85.3369 92.1742 85.3333 90.6667C85.3333 89.1556 84.8213 87.8898 83.7973 86.8694C82.7733 85.8489 81.5076 85.3369 80 85.3334H48C46.4889 85.3334 45.2231 85.8454 44.2027 86.8694C43.1822 87.8934 42.6702 89.1591 42.6667 90.6667C42.6667 92.1778 43.1787 93.4454 44.2027 94.4694C45.2267 95.4934 46.4924 96.0036 48 96ZM48 74.6667H80C81.5111 74.6667 82.7787 74.1547 83.8027 73.1307C84.8267 72.1067 85.3369 70.8409 85.3333 69.3334C85.3333 67.8222 84.8213 66.5565 83.7973 65.536C82.7733 64.5156 81.5076 64.0036 80 64H48C46.4889 64 45.2231 64.512 44.2027 65.536C43.1822 66.56 42.6702 67.8258 42.6667 69.3334C42.6667 70.8445 43.1787 72.112 44.2027 73.136C45.2267 74.16 46.4924 74.6702 48 74.6667ZM32 117.333C29.0667 117.333 26.5564 116.29 24.4693 114.203C22.3822 112.116 21.3369 109.604 21.3333 106.667V21.3334C21.3333 18.4 22.3787 15.8898 24.4693 13.8027C26.56 11.7156 29.0702 10.6702 32 10.6667H70.2667C71.6889 10.6667 73.0453 10.9334 74.336 11.4667C75.6267 12 76.7591 12.7556 77.7333 13.7334L103.6 39.6C104.578 40.5778 105.333 41.712 105.867 43.0027C106.4 44.2934 106.667 45.648 106.667 47.0667V106.667C106.667 109.6 105.623 112.112 103.536 114.203C101.449 116.293 98.9369 117.337 96 117.333H32ZM69.3333 42.6667V21.3334H32V106.667H96V48H74.6667C73.1556 48 71.8898 47.488 70.8693 46.464C69.8489 45.44 69.3369 44.1742 69.3333 42.6667Z" fill="black"/>
</svg>
