<svg width="128" height="128" viewBox="0 0 128 128" fill="none" xmlns="http://www.w3.org/2000/svg">
<path d="M10.6667 32C10.6667 29.171 11.7905 26.4579 13.7909 24.4575C15.7912 22.4571 18.5043 21.3333 21.3333 21.3333H106.667C109.496 21.3333 112.209 22.4571 114.209 24.4575C116.21 26.4579 117.333 29.171 117.333 32V96C117.333 98.829 116.21 101.542 114.209 103.542C112.209 105.543 109.496 106.667 106.667 106.667H21.3333C18.5043 106.667 15.7912 105.543 13.7909 103.542C11.7905 101.542 10.6667 98.829 10.6667 96V32ZM29.4347 32L64 62.2453L98.5653 32H29.4347ZM106.667 39.088L67.5147 73.3493C66.5421 74.2014 65.2931 74.6712 64 74.6712C62.7069 74.6712 61.4579 74.2014 60.4853 73.3493L21.3333 39.088V96H106.667V39.088Z" fill="black"/>
</svg>
