<svg width="128" height="128" viewBox="0 0 128 128" fill="none" xmlns="http://www.w3.org/2000/svg">
<path d="M128 36.8212C128 78.3935 68.6914 112.043 66.1657 113.433C65.5 113.805 64.7559 114 64 114C63.2441 114 62.5 113.805 61.8343 113.433C59.3086 112.043 0 78.3935 0 36.8212C0.0105871 27.059 3.74663 17.6998 10.3885 10.7968C17.0303 3.8939 26.0356 0.0110032 35.4286 0C47.2286 0 57.56 5.27374 64 14.188C70.44 5.27374 80.7714 0 92.5714 0C101.964 0.0110032 110.97 3.8939 117.612 10.7968C124.253 17.6998 127.989 27.059 128 36.8212Z" fill="black"/>
</svg>
