<svg width="25" height="24" viewBox="0 0 25 24" fill="none" xmlns="http://www.w3.org/2000/svg">
<g clip-path="url(#clip0_187_588)">
<path d="M24.5 6.90397C24.5 14.6988 13.3796 21.0081 12.9061 21.2687C12.7813 21.3385 12.6417 21.375 12.5 21.375C12.3583 21.375 12.2187 21.3385 12.0939 21.2687C11.6204 21.0081 0.5 14.6988 0.5 6.90397C0.501985 5.07356 1.20249 3.3187 2.44784 2.02441C3.69319 0.730106 5.38167 0.0020631 7.14286 0C9.35536 0 11.2925 0.988827 12.5 2.66026C13.7075 0.988827 15.6446 0 17.8571 0C19.6183 0.0020631 21.3068 0.730106 22.5522 2.02441C23.7975 3.3187 24.498 5.07356 24.5 6.90397Z" fill="#A7001E"/>
</g>
<defs>
<clipPath id="clip0_187_588">
<rect width="24" height="24" fill="white" transform="translate(0.5)"/>
</clipPath>
</defs>
</svg>
