<svg width="128" height="128" viewBox="0 0 128 128" fill="none" xmlns="http://www.w3.org/2000/svg">
<path d="M91.5862 0C80.5021 0 70.6648 4.51999 64 12.2889C57.3352 4.51999 47.4979 0 36.4138 0C26.7598 0.0120672 17.5046 3.97937 10.6783 11.0317C3.85187 18.084 0.0116805 27.6456 0 37.6191C0 78.8519 58.3779 111.797 60.8607 113.182C61.8255 113.719 62.9042 114 64 114C65.0958 114 66.1745 113.719 67.1393 113.182C69.6221 111.797 128 78.8519 128 37.6191C127.988 27.6456 124.148 18.084 117.322 11.0317C110.495 3.97937 101.24 0.0120672 91.5862 0ZM88.5572 81.1433C80.8732 87.8796 72.659 93.9424 64 99.2688C55.341 93.9424 47.1268 87.8796 39.4428 81.1433C27.4869 70.5472 13.2414 54.3881 13.2414 37.6191C13.2414 31.27 15.6828 25.1809 20.0284 20.6914C24.3741 16.2019 30.2681 13.6797 36.4138 13.6797C46.2345 13.6797 54.4552 19.0375 57.8703 27.6671C58.3674 28.9251 59.2159 30.0017 60.3076 30.7595C61.3993 31.5173 62.6848 31.922 64 31.922C65.3152 31.922 66.6007 31.5173 67.6924 30.7595C68.7841 30.0017 69.6326 28.9251 70.1297 27.6671C73.5448 19.0375 81.7655 13.6797 91.5862 13.6797C97.7319 13.6797 103.626 16.2019 107.972 20.6914C112.317 25.1809 114.759 31.27 114.759 37.6191C114.759 54.3881 100.513 70.5472 88.5572 81.1433Z" fill="black"/>
</svg>
