<svg width="25" height="24" viewBox="0 0 25 24" fill="none" xmlns="http://www.w3.org/2000/svg">
<g clip-path="url(#clip0_187_580)">
<path d="M17.6724 0C15.5941 0 13.7497 0.847499 12.5 2.30417C11.2503 0.847499 9.40586 0 7.32759 0C5.51747 0.00226259 3.78212 0.746132 2.50217 2.06845C1.22223 3.39076 0.50219 5.18355 0.5 7.05358C0.5 14.7847 11.4459 20.962 11.9114 21.2217C12.0923 21.3223 12.2945 21.375 12.5 21.375C12.7055 21.375 12.9077 21.3223 13.0886 21.2217C13.5541 20.962 24.5 14.7847 24.5 7.05358C24.4978 5.18355 23.7778 3.39076 22.4978 2.06845C21.2179 0.746132 19.4825 0.00226259 17.6724 0ZM17.1045 15.2144C15.6637 16.4774 14.1236 17.6142 12.5 18.6129C10.8764 17.6142 9.33627 16.4774 7.89552 15.2144C5.65379 13.2276 2.98276 10.1978 2.98276 7.05358C2.98276 5.86312 3.44052 4.72142 4.25533 3.87963C5.07014 3.03785 6.17527 2.56494 7.32759 2.56494C9.16897 2.56494 10.7103 3.56954 11.3507 5.18759C11.4439 5.42346 11.603 5.62532 11.8077 5.7674C12.0124 5.90949 12.2534 5.98537 12.5 5.98537C12.7466 5.98537 12.9876 5.90949 13.1923 5.7674C13.397 5.62532 13.5561 5.42346 13.6493 5.18759C14.2897 3.56954 15.831 2.56494 17.6724 2.56494C18.8247 2.56494 19.9299 3.03785 20.7447 3.87963C21.5595 4.72142 22.0172 5.86312 22.0172 7.05358C22.0172 10.1978 19.3462 13.2276 17.1045 15.2144Z" fill="white"/>
</g>
<defs>
<clipPath id="clip0_187_580">
<rect width="24" height="24" fill="white" transform="translate(0.5)"/>
</clipPath>
</defs>
</svg>
