<svg width="128" height="128" viewBox="0 0 128 128" fill="none" xmlns="http://www.w3.org/2000/svg">
<g clip-path="url(#clip0_26_8)">
<path d="M16 113.371H40V76.8C40 74.7276 40.768 72.9917 42.304 71.5922C43.84 70.1927 45.7387 69.4906 48 69.4857H80C82.2666 69.4857 84.168 70.1879 85.704 71.5922C87.24 72.9966 88.0053 74.7325 88 76.8V113.371H112V47.5428L64 14.6286L16 47.5428V113.371ZM0 113.371V47.5428C0 45.2267 0.567998 43.0324 1.704 40.96C2.84 38.8876 4.40533 37.1809 6.4 35.84L54.4 2.92571C57.2 0.975239 60.4 0 64 0C67.6 0 70.8 0.975239 73.6 2.92571L121.6 35.84C123.6 37.1809 125.168 38.8876 126.304 40.96C127.44 43.0324 128.005 45.2267 128 47.5428V113.371C128 117.394 126.432 120.839 123.296 123.706C120.16 126.574 116.395 128.005 112 128H80C77.7333 128 75.8346 127.298 74.304 125.893C72.7733 124.489 72.0053 122.753 72 120.686V84.1143H56V120.686C56 122.758 55.232 124.496 53.696 125.901C52.16 127.305 50.2613 128.005 48 128H16C11.6 128 7.83466 126.569 4.704 123.706C1.57333 120.844 0.00533333 117.399 0 113.371Z" fill="black"/>
</g>
<defs>
<clipPath id="clip0_26_8">
<rect width="128" height="128" fill="white"/>
</clipPath>
</defs>
</svg>
