<svg width="128" height="128" viewBox="0 0 128 128" fill="none" xmlns="http://www.w3.org/2000/svg">
<g clip-path="url(#clip0_187_329)">
<path d="M0 113.371V47.5428C0 45.2267 0.567998 43.0324 1.704 40.96C2.84 38.8876 4.40533 37.1809 6.4 35.84L54.4 2.92571C57.2 0.975239 60.4 0 64 0C67.6 0 70.8 0.975239 73.6 2.92571L121.6 35.84C123.6 37.1809 125.168 38.8876 126.304 40.96C127.44 43.0324 128.005 45.2267 128 47.5428V113.371C128 117.394 126.432 120.839 123.296 123.706C120.16 126.574 116.395 128.005 112 128H88C85.7333 128 83.8346 127.298 82.304 125.893C80.7733 124.489 80.0053 122.753 80 120.686V84.1143C80 82.0419 79.232 80.306 77.696 78.9065C76.16 77.507 74.2613 76.8049 72 76.8H56C53.7333 76.8 51.8347 77.5022 50.304 78.9065C48.7733 80.3108 48.0053 82.0468 48 84.1143V120.686C48 122.758 47.232 124.496 45.696 125.901C44.16 127.305 42.2613 128.005 40 128H16C11.6 128 7.83466 126.569 4.704 123.706C1.57333 120.844 0.00533333 117.399 0 113.371Z" fill="black"/>
</g>
<defs>
<clipPath id="clip0_187_329">
<rect width="128" height="128" fill="white"/>
</clipPath>
</defs>
</svg>
