<svg width="128" height="128" viewBox="0 0 128 128" fill="none" xmlns="http://www.w3.org/2000/svg">
<path d="M48 31.04L39.2533 22.1866C41.2096 17.2179 44.6163 12.9531 49.03 9.94719C53.4437 6.94132 58.66 5.33362 64 5.33331C78.72 5.33331 90.6667 17.28 90.6667 32V42.6666H96C98.829 42.6666 101.542 43.7905 103.542 45.7908C105.543 47.7912 106.667 50.5043 106.667 53.3333V89.6L96 78.9333V53.3333H70.4L59.7333 42.6666H80V32C80 23.1466 72.8533 16 64 16C55.52 16 48.5867 22.6666 48 31.04ZM117.92 114.453L111.147 121.227L103.787 113.867C101.867 116 99.0933 117.333 96 117.333H32C29.171 117.333 26.4579 116.21 24.4575 114.209C22.4571 112.209 21.3333 109.496 21.3333 106.667V53.3333C21.3333 47.4133 26.08 42.6666 32 42.6666H32.5867L5.91998 16L12.7467 9.22665L117.92 114.453ZM96 106.08L73.8667 83.9466C72.32 88 68.48 90.6666 64 90.6666C61.171 90.6666 58.4579 89.5428 56.4575 87.5424C54.4571 85.5421 53.3333 82.829 53.3333 80C53.3333 75.4667 56 71.68 60.0533 70.1333L43.2533 53.3333H32V106.667H96V106.08Z" fill="black"/>
</svg>
