<svg width="128" height="128" viewBox="0 0 128 128" fill="none" xmlns="http://www.w3.org/2000/svg">
<path d="M64 90.6666C61.171 90.6666 58.4579 89.5428 56.4575 87.5424C54.4571 85.5421 53.3333 82.829 53.3333 80C53.3333 74.08 58.08 69.3333 64 69.3333C66.829 69.3333 69.5421 70.4571 71.5425 72.4575C73.5429 74.4579 74.6667 77.171 74.6667 80C74.6667 82.829 73.5429 85.5421 71.5425 87.5424C69.5421 89.5428 66.829 90.6666 64 90.6666ZM96 106.667V53.3333H32V106.667H96ZM96 42.6666C98.829 42.6666 101.542 43.7905 103.542 45.7908C105.543 47.7912 106.667 50.5043 106.667 53.3333V106.667C106.667 109.496 105.543 112.209 103.542 114.209C101.542 116.21 98.829 117.333 96 117.333H32C29.171 117.333 26.4579 116.21 24.4575 114.209C22.4571 112.209 21.3333 109.496 21.3333 106.667V53.3333C21.3333 47.4133 26.08 42.6666 32 42.6666H37.3333V32C37.3333 24.9275 40.1428 18.1448 45.1438 13.1438C50.1448 8.14283 56.9276 5.33331 64 5.33331C67.5019 5.33331 70.9695 6.02307 74.2049 7.36319C77.4402 8.70332 80.3799 10.6676 82.8562 13.1438C85.3324 15.62 87.2967 18.5597 88.6368 21.7951C89.9769 25.0304 90.6667 28.4981 90.6667 32V42.6666H96ZM64 16C59.7565 16 55.6869 17.6857 52.6863 20.6863C49.6857 23.6869 48 27.7565 48 32V42.6666H80V32C80 27.7565 78.3143 23.6869 75.3137 20.6863C72.3131 17.6857 68.2435 16 64 16Z" fill="black"/>
</svg>
