<svg width="25" height="24" viewBox="0 0 25 24" fill="none" xmlns="http://www.w3.org/2000/svg">
<g clip-path="url(#clip0_187_636)">
<path d="M17.0428 10.2945C17.0428 11.5421 16.6698 12.7617 15.9709 13.7991C15.272 14.8364 14.2786 15.6449 13.1164 16.1224C11.9542 16.5998 10.6754 16.7247 9.44156 16.4813C8.20777 16.2379 7.07446 15.6372 6.18495 14.755C5.29543 13.8728 4.68966 12.7488 4.44425 11.5251C4.19883 10.3015 4.32479 9.03312 4.80619 7.88047C5.28759 6.72782 6.10282 5.74263 7.14878 5.04949C8.19473 4.35635 9.42445 3.98639 10.6824 3.98639C12.3693 3.98639 13.9871 4.65099 15.1799 5.83398C16.3727 7.01698 17.0428 8.62146 17.0428 10.2945ZM24.046 23.5482C23.9616 23.632 23.8614 23.6985 23.7511 23.7438C23.6408 23.7892 23.5226 23.8125 23.4032 23.8125C23.2838 23.8125 23.1655 23.7892 23.0552 23.7438C22.9449 23.6985 22.8447 23.632 22.7603 23.5482L17.0746 17.9081C15.0973 19.5395 12.562 20.3522 9.99601 20.177C7.43002 20.0018 5.0309 18.8523 3.29766 16.9676C1.56443 15.0828 0.630519 12.6079 0.690193 10.0577C0.749868 7.50749 1.79853 5.07824 3.61806 3.27527C5.43758 1.4723 7.8879 0.434402 10.4593 0.377472C13.0307 0.320541 15.5253 1.24896 17.4241 2.96961C19.323 4.69026 20.4799 7.07068 20.6543 9.61572C20.8286 12.1608 20.007 14.6745 18.3603 16.6341L24.046 22.2731C24.1305 22.3568 24.1975 22.4562 24.2432 22.5655C24.289 22.6749 24.3125 22.7922 24.3125 22.9106C24.3125 23.0291 24.289 23.1463 24.2432 23.2557C24.1975 23.3651 24.1305 23.4645 24.046 23.5482ZM10.6824 18.4049C12.2998 18.4049 13.8809 17.9292 15.2257 17.038C16.5705 16.1468 17.6186 14.8802 18.2376 13.3982C18.8565 11.9162 19.0184 10.2855 18.7029 8.71221C18.3874 7.13895 17.6085 5.69381 16.4649 4.55956C15.3212 3.4253 13.8641 2.65286 12.2778 2.33992C10.6915 2.02697 9.04723 2.18759 7.55297 2.80144C6.0587 3.4153 4.78153 4.45483 3.88296 5.78858C2.9844 7.12232 2.50479 8.69039 2.50479 10.2945C2.50719 12.4447 3.36953 14.5063 4.90261 16.0268C6.43569 17.5472 8.51431 18.4025 10.6824 18.4049Z" fill="#A7001E"/>
</g>
<defs>
<clipPath id="clip0_187_636">
<rect width="24" height="24" fill="white" transform="translate(0.5)"/>
</clipPath>
</defs>
</svg>
