<svg width="25" height="24" viewBox="0 0 25 24" fill="none" xmlns="http://www.w3.org/2000/svg">
<g clip-path="url(#clip0_187_615)">
<path d="M24.0465 22.2621L18.3656 16.5824C20.0122 14.6056 20.8332 12.0701 20.658 9.50341C20.4827 6.93668 19.3247 4.53633 17.4248 2.80167C15.5248 1.06702 13.0293 0.13163 10.4572 0.190083C7.88518 0.248537 5.43469 1.29634 3.61551 3.11551C1.79634 4.93469 0.748537 7.38518 0.690083 9.95722C0.63163 12.5293 1.56702 15.0248 3.30167 16.9248C5.03633 18.8247 7.43668 19.9827 10.0034 20.158C12.5701 20.3332 15.1056 19.5122 17.0824 17.8656L22.7621 23.5465C22.8465 23.6308 22.9466 23.6977 23.0568 23.7434C23.167 23.789 23.2851 23.8125 23.4043 23.8125C23.5236 23.8125 23.6417 23.789 23.7519 23.7434C23.8621 23.6977 23.9622 23.6308 24.0465 23.5465C24.1308 23.4622 24.1977 23.3621 24.2434 23.2519C24.289 23.1417 24.3125 23.0236 24.3125 22.9043C24.3125 22.7851 24.289 22.667 24.2434 22.5568C24.1977 22.4466 24.1308 22.3465 24.0465 22.2621ZM2.52792 10.1969C2.52792 8.58127 3.00702 7.00187 3.90465 5.65848C4.80227 4.31509 6.0781 3.26804 7.57079 2.64975C9.06349 2.03145 10.706 1.86968 12.2906 2.18488C13.8753 2.50009 15.3309 3.27811 16.4733 4.42057C17.6158 5.56303 18.3938 7.01861 18.709 8.60325C19.0242 10.1879 18.8624 11.8304 18.2441 13.3231C17.6259 14.8158 16.5788 16.0916 15.2354 16.9892C13.892 17.8869 12.3126 18.366 10.6969 18.366C8.53112 18.3636 6.45469 17.5021 4.92322 15.9707C3.39175 14.4392 2.53032 12.3628 2.52792 10.1969Z" fill="white"/>
</g>
<defs>
<clipPath id="clip0_187_615">
<rect width="24" height="24" fill="white" transform="translate(0.5)"/>
</clipPath>
</defs>
</svg>
