<svg width="128" height="128" viewBox="0 0 128 128" fill="none" xmlns="http://www.w3.org/2000/svg">
<path d="M88.2282 54.9038C88.2282 61.5578 86.2387 68.0624 82.5113 73.595C78.7839 79.1275 73.486 83.4397 67.2876 85.986C61.0891 88.5324 54.2686 89.1986 47.6883 87.9005C41.1081 86.6024 35.0638 83.3982 30.3197 78.6931C25.5756 73.988 22.3449 67.9934 21.036 61.4673C19.7271 54.9412 20.3989 48.1767 22.9663 42.0292C25.5338 35.8817 29.8817 30.6274 35.4601 26.9306C41.0386 23.2339 47.5971 21.2607 54.3062 21.2607C63.3029 21.2607 71.9311 24.8053 78.2927 31.1146C84.6543 37.4239 88.2282 45.9811 88.2282 54.9038ZM125.579 125.59C125.129 126.037 124.594 126.392 124.006 126.634C123.418 126.876 122.787 127 122.15 127C121.513 127 120.883 126.876 120.294 126.634C119.706 126.392 119.172 126.037 118.722 125.59L88.3978 95.5099C77.8523 104.211 64.3307 108.545 50.6454 107.611C36.9601 106.676 24.1648 100.546 14.9209 90.4937C5.67695 80.4418 0.696099 67.2424 1.01436 53.6412C1.33263 40.04 6.9255 27.084 16.6296 17.4681C26.3338 7.85225 39.4021 2.31681 53.1164 2.01318C66.8306 1.70955 80.135 6.66112 90.2621 15.8379C100.389 25.0147 106.559 37.7103 107.489 51.2839C108.419 64.8574 104.037 78.2641 95.2549 88.7152L125.579 118.79C126.029 119.236 126.387 119.766 126.631 120.35C126.874 120.933 127 121.558 127 122.19C127 122.822 126.874 123.447 126.631 124.031C126.387 124.614 126.029 125.144 125.579 125.59ZM54.3062 98.1593C62.9322 98.1593 71.3645 95.6224 78.5368 90.8694C85.7091 86.1164 91.2992 79.3609 94.6003 71.457C97.9013 63.5531 98.765 54.8559 97.0822 46.4651C95.3993 38.0744 91.2455 30.367 85.1459 24.3176C79.0464 18.2682 71.2751 14.1486 62.8149 12.4796C54.3546 10.8105 45.5853 11.6671 37.6158 14.941C29.6464 18.2149 22.8348 23.7591 18.0425 30.8724C13.2501 37.9857 10.6922 46.3487 10.6922 54.9038C10.705 66.372 15.3042 77.3668 23.4806 85.476C31.657 93.5852 42.743 98.1466 54.3062 98.1593Z" fill="black"/>
</svg>
