<svg width="128" height="128" viewBox="0 0 128 128" fill="none" xmlns="http://www.w3.org/2000/svg">
<path d="M125.581 118.731L95.2833 88.4395C104.065 77.8966 108.444 64.3741 107.509 50.6849C106.575 36.9957 100.398 24.1937 90.2654 14.9423C80.1323 5.69078 66.8227 0.702025 53.1051 1.01378C39.3876 1.32553 26.3183 6.91379 16.6161 16.6161C6.91379 26.3183 1.32553 39.3876 1.01378 53.1051C0.702025 66.8227 5.69078 80.1323 14.9423 90.2654C24.1937 100.398 36.9957 106.575 50.6849 107.509C64.3741 108.444 77.8966 104.065 88.4395 95.2833L118.731 125.581C119.181 126.031 119.715 126.388 120.303 126.631C120.89 126.875 121.52 127 122.156 127C122.792 127 123.422 126.875 124.01 126.631C124.598 126.388 125.132 126.031 125.581 125.581C126.031 125.132 126.388 124.598 126.631 124.01C126.875 123.422 127 122.792 127 122.156C127 121.52 126.875 120.89 126.631 120.303C126.388 119.715 126.031 119.181 125.581 118.731ZM10.8156 54.3837C10.8156 45.7667 13.3708 37.3433 18.1581 30.1785C22.9454 23.0138 29.7499 17.4296 37.7109 14.132C45.6719 10.8344 54.432 9.97162 62.8834 11.6527C71.3348 13.3338 79.0979 17.4833 85.191 23.5764C91.2842 29.6695 95.4336 37.4326 97.1147 45.884C98.7958 54.3354 97.933 63.0955 94.6354 71.0565C91.3379 79.0176 85.7536 85.822 78.5889 90.6093C71.4241 95.3966 63.0007 97.9519 54.3837 97.9519C42.8327 97.9391 31.7584 93.3447 23.5905 85.1769C15.4227 77.0091 10.8284 65.9348 10.8156 54.3837Z" fill="black"/>
</svg>
