<svg width="128" height="128" viewBox="0 0 128 128" fill="none" xmlns="http://www.w3.org/2000/svg">
<path d="M111.147 11.6267L90.1867 15.7867L104.8 34.6667L115.307 32.5333L111.147 11.6267ZM74.5067 18.88L64 20.96L78.6667 39.7867L89.12 37.7067L74.5067 18.88ZM48.3733 24L37.8667 26.1867L52.5333 45.0133L62.9867 42.9333L48.3733 24ZM22.1867 29.3333L16.96 30.3467C14.1887 30.9004 11.7504 32.5312 10.1805 34.8811C8.61055 37.231 8.03733 40.1078 8.58666 42.88L10.6667 53.3333L36.8 48.16L22.1867 29.3333ZM10.6667 53.3333V106.667C10.6667 109.496 11.7905 112.209 13.7909 114.209C15.7912 116.21 18.5044 117.333 21.3333 117.333H106.667C112.587 117.333 117.333 112.587 117.333 106.667V53.3333H10.6667Z" fill="black"/>
</svg>
