<svg width="32" height="32" viewBox="0 0 32 32" fill="none" xmlns="http://www.w3.org/2000/svg">
<path d="M27.7866 2.90668L22.5466 3.94668L26.2 8.66668L28.8266 8.13334L27.7866 2.90668ZM18.6266 4.72001L16 5.24001L19.6666 9.94668L22.28 9.42668L18.6266 4.72001ZM12.0933 6.00001L9.46664 6.54668L13.1333 11.2533L15.7466 10.7333L12.0933 6.00001ZM5.54664 7.33334L4.23997 7.58668C3.54715 7.7251 2.93757 8.13281 2.54509 8.72028C2.15261 9.30776 2.00931 10.027 2.14664 10.72L2.66664 13.3333L9.19997 12.04L5.54664 7.33334ZM2.66664 13.3333V26.6667C2.66664 27.3739 2.94759 28.0522 3.44769 28.5523C3.94778 29.0524 4.62606 29.3333 5.33331 29.3333H26.6666C28.1466 29.3333 29.3333 28.1467 29.3333 26.6667V13.3333H2.66664Z" fill="#A7001E"/>
</svg>
