<svg width="128" height="128" viewBox="0 0 128 128" fill="none" xmlns="http://www.w3.org/2000/svg">
<path fill-rule="evenodd" clip-rule="evenodd" d="M63.032 40L71.512 31.52L82.88 20.144C78.1614 19.6526 73.3954 20.3681 69.0292 22.2235C64.6629 24.0789 60.8397 27.0132 57.9183 30.7511C54.997 34.489 53.0732 38.9079 52.3277 43.593C51.5821 48.2782 52.0392 53.0759 53.656 57.536L56.264 64.712L50.864 70.104L20.488 100.488C20.0095 100.945 19.6271 101.494 19.3634 102.101C19.0998 102.708 18.9601 103.361 18.9525 104.023C18.945 104.685 19.0698 105.342 19.3197 105.955C19.5695 106.568 19.9393 107.125 20.4073 107.593C20.8753 108.061 21.4322 108.431 22.0451 108.68C22.6581 108.93 23.3148 109.055 23.9766 109.047C24.6385 109.04 25.2922 108.9 25.8993 108.637C26.5064 108.373 27.0547 107.991 27.512 107.512L57.896 77.136L63.288 71.736L70.464 74.336C74.9241 75.9528 79.7218 76.4099 84.407 75.6643C89.0921 74.9188 93.511 72.995 97.2489 70.0736C100.987 67.1523 103.921 63.329 105.776 58.9628C107.632 54.5966 108.347 49.8305 107.856 45.112L96.48 56.496L88 64.96L79.52 56.48L71.52 48.48L63.032 40ZM112.416 24.56C117.354 31.3776 120.008 39.5822 120 48C120.003 54.4266 118.457 60.7593 115.493 66.4618C112.529 72.1643 108.235 77.0687 102.974 80.7599C97.7133 84.4511 91.6405 86.8203 85.2699 87.667C78.8993 88.5137 72.4184 87.8129 66.376 85.624L36 116C34.4241 117.576 32.5533 118.826 30.4944 119.679C28.4354 120.532 26.2286 120.971 24 120.971C21.7714 120.971 19.5646 120.532 17.5057 119.679C15.4467 118.826 13.5759 117.576 12 116C8.81741 112.817 7.02945 108.501 7.02945 104C7.02945 99.4991 8.81741 95.1826 12 92L42.376 61.624C39.4376 53.5235 39.1936 44.6906 41.6804 36.4402C44.1672 28.1898 49.2518 20.9631 56.1773 15.8357C63.1028 10.7083 71.4989 7.95446 80.1159 7.98406C88.7329 8.01366 97.1099 10.8251 104 16L95.392 24.608L88.488 31.512L80 40L88 48L96.48 39.52L103.392 32.608L112 24L112.416 24.56Z" fill="black"/>
</svg>
