<svg width="128" height="128" viewBox="0 0 128 128" fill="none" xmlns="http://www.w3.org/2000/svg">
<path d="M114 64C114 65.5913 113.368 67.1174 112.243 68.2426C111.117 69.3679 109.591 70 108 70H70V108C70 109.591 69.3679 111.117 68.2426 112.243C67.1174 113.368 65.5913 114 64 114C62.4087 114 60.8826 113.368 59.7574 112.243C58.6321 111.117 58 109.591 58 108V70H20C18.4087 70 16.8826 69.3679 15.7574 68.2426C14.6321 67.1174 14 65.5913 14 64C14 62.4087 14.6321 60.8826 15.7574 59.7574C16.8826 58.6321 18.4087 58 20 58H58V20C58 18.4087 58.6321 16.8826 59.7574 15.7574C60.8826 14.6321 62.4087 14 64 14C65.5913 14 67.1174 14.6321 68.2426 15.7574C69.3679 16.8826 70 18.4087 70 20V58H108C109.591 58 111.117 58.6321 112.243 59.7574C113.368 60.8826 114 62.4087 114 64Z" fill="black"/>
</svg>
