<svg width="128" height="128" viewBox="0 0 128 128" fill="none" xmlns="http://www.w3.org/2000/svg">
<g clip-path="url(#clip0_174_199)">
<path d="M64 0C51.342 0 38.9683 3.75353 28.4435 10.7859C17.9188 17.8183 9.71574 27.8138 4.87174 39.5082C0.0277302 51.2027 -1.23968 64.071 1.22977 76.4858C3.69922 88.9005 9.79463 100.304 18.7452 109.255C27.6957 118.205 39.0995 124.301 51.5142 126.77C63.929 129.24 76.7973 127.972 88.4917 123.128C100.186 118.284 110.182 110.081 117.214 99.5565C124.246 89.0317 128 76.658 128 64C127.982 47.0316 121.233 30.7634 109.235 18.765C97.2366 6.76651 80.9684 0.0179189 64 0ZM41.8462 44.3077C43.3067 44.3077 44.7344 44.7408 45.9488 45.5522C47.1632 46.3636 48.1097 47.517 48.6687 48.8663C49.2276 50.2157 49.3738 51.7005 49.0889 53.133C48.804 54.5654 48.1006 55.8812 47.0679 56.914C46.0351 57.9468 44.7193 58.6501 43.2868 58.935C41.8544 59.22 40.3696 59.0737 39.0202 58.5148C37.6708 57.9559 36.5175 57.0094 35.7061 55.795C34.8947 54.5806 34.4616 53.1528 34.4616 51.6923C34.4616 49.7338 35.2396 47.8555 36.6245 46.4706C38.0093 45.0857 39.8876 44.3077 41.8462 44.3077ZM91.0769 97.7969C89.9472 98.4486 88.6051 98.6253 87.3452 98.2884C86.0853 97.9515 85.0106 97.1285 84.3569 96C79.76 88.0554 72.5354 83.6923 64 83.6923C55.4646 83.6923 48.24 88.0615 43.6431 96C43.3353 96.5883 42.9117 97.1083 42.3978 97.5287C41.8839 97.9491 41.2902 98.2611 40.6525 98.4461C40.0148 98.6311 39.3463 98.6852 38.6872 98.6052C38.0281 98.5251 37.392 98.3125 36.8171 97.9803C36.2423 97.648 35.7406 97.2029 35.3422 96.6717C34.9439 96.1405 34.6571 95.5342 34.4991 94.8893C34.3412 94.2444 34.3153 93.5742 34.423 92.919C34.5308 92.2638 34.77 91.6372 35.1262 91.0769C41.4585 80.1292 51.9816 73.8461 64 73.8461C76.0185 73.8461 86.5415 80.1231 92.8738 91.0769C93.5255 92.2066 93.7023 93.5487 93.3654 94.8086C93.0285 96.0685 92.2055 97.1432 91.0769 97.7969ZM86.1539 59.0769C84.6933 59.0769 83.2656 58.6438 82.0512 57.8324C80.8368 57.0209 79.8903 55.8676 79.3314 54.5183C78.7724 53.1689 78.6262 51.6841 78.9111 50.2516C79.1961 48.8192 79.8994 47.5033 80.9321 46.4706C81.9649 45.4378 83.2807 44.7345 84.7132 44.4496C86.1457 44.1646 87.6305 44.3109 88.9798 44.8698C90.3292 45.4287 91.4825 46.3752 92.2939 47.5896C93.1054 48.804 93.5385 50.2318 93.5385 51.6923C93.5385 53.6508 92.7604 55.5291 91.3756 56.914C89.9907 58.2989 88.1124 59.0769 86.1539 59.0769Z" fill="black"/>
</g>
<defs>
<clipPath id="clip0_174_199">
<rect width="128" height="128" fill="white"/>
</clipPath>
</defs>
</svg>
