<svg width="128" height="128" viewBox="0 0 128 128" fill="none" xmlns="http://www.w3.org/2000/svg">
<g clip-path="url(#clip0_174_197)">
<path fill-rule="evenodd" clip-rule="evenodd" d="M128 64C128 47.0261 121.257 30.7475 109.255 18.7452C97.2525 6.74284 80.9739 0 64 0C47.0261 0 30.7475 6.74284 18.7452 18.7452C6.74284 30.7475 0 47.0261 0 64C0 80.9739 6.74284 97.2525 18.7452 109.255C30.7475 121.257 47.0261 128 64 128C80.9739 128 97.2525 121.257 109.255 109.255C121.257 97.2525 128 80.9739 128 64ZM86.9394 80.7954C87.1321 80.0681 87.4665 79.3861 87.9234 78.7883C88.3803 78.1906 88.9508 77.689 89.602 77.3122C90.2533 76.9355 90.9726 76.6911 91.7185 76.5931C92.4645 76.495 93.2224 76.5453 93.9489 76.7409C94.6754 76.9365 95.3561 77.2737 95.952 77.733C96.5479 78.1924 97.0472 78.7649 97.4212 79.4177C97.7953 80.0705 98.0367 80.7907 98.1318 81.537C98.2268 82.2834 98.1734 83.0412 97.9749 83.7669C95.9498 91.2257 91.5262 97.8106 85.3868 102.506C79.2474 107.2 71.7334 109.744 64.0046 109.744C56.2758 109.744 48.7618 107.2 42.6224 102.506C36.4829 97.8106 32.0593 91.2257 30.0343 83.7669C29.6473 82.3058 29.8549 80.7508 30.6117 79.4425C31.3685 78.1341 32.6128 77.1789 34.0723 76.7859C35.5318 76.3929 37.0876 76.5942 38.399 77.3456C39.7105 78.0971 40.6708 79.3375 41.0697 80.7954C42.4412 85.8274 45.4294 90.2686 49.5739 93.4347C53.7184 96.6008 58.7891 98.316 64.0046 98.316C69.22 98.316 74.2908 96.6008 78.4353 93.4347C82.5798 90.2686 85.568 85.8274 86.9394 80.7954ZM91.9132 35.584C100.992 24.4571 110.565 32.3657 110.693 40.8869C110.693 53.5863 95.5154 64 91.9223 64C88.3291 64 73.1429 53.5771 73.1429 40.896C73.2709 32.3657 82.8434 24.448 91.9132 35.584ZM17.3074 40.8869C17.4354 32.3657 27.008 24.4571 36.0777 35.584C45.1566 24.4571 54.7291 32.3657 54.8571 40.8869C54.8571 53.5954 39.68 64 36.0777 64C32.4937 64 17.3074 53.568 17.3074 40.8869Z" fill="black"/>
</g>
<defs>
<clipPath id="clip0_174_197">
<rect width="128" height="128" fill="white"/>
</clipPath>
</defs>
</svg>
