<svg width="128" height="128" viewBox="0 0 128 128" fill="none" xmlns="http://www.w3.org/2000/svg">
<g clip-path="url(#clip0_174_196)">
<path d="M64 0C51.342 0 38.9683 3.75353 28.4435 10.7859C17.9188 17.8183 9.71574 27.8138 4.87174 39.5082C0.0277302 51.2027 -1.23968 64.071 1.22977 76.4858C3.69922 88.9005 9.79463 100.304 18.7452 109.255C27.6957 118.205 39.0995 124.301 51.5142 126.77C63.929 129.24 76.7973 127.972 88.4917 123.128C100.186 118.284 110.182 110.081 117.214 99.5565C124.246 89.0317 128 76.658 128 64C127.979 47.0326 121.229 30.7663 109.231 18.7685C97.2337 6.7708 80.9674 0.0211695 64 0ZM41.8462 44.3077C43.3067 44.3077 44.7344 44.7408 45.9488 45.5522C47.1632 46.3636 48.1097 47.517 48.6687 48.8663C49.2276 50.2157 49.3738 51.7005 49.0889 53.133C48.804 54.5654 48.1006 55.8812 47.0679 56.914C46.0351 57.9468 44.7193 58.6501 43.2868 58.935C41.8544 59.22 40.3696 59.0737 39.0202 58.5148C37.6708 57.9559 36.5175 57.0094 35.7061 55.795C34.8947 54.5806 34.4616 53.1528 34.4616 51.6923C34.4616 49.7338 35.2396 47.8555 36.6245 46.4706C38.0093 45.0857 39.8876 44.3077 41.8462 44.3077ZM88.6154 88.6154H39.3846C38.079 88.6154 36.8268 88.0967 35.9035 87.1734C34.9802 86.2502 34.4616 84.998 34.4616 83.6923C34.4616 82.3866 34.9802 81.1344 35.9035 80.2111C36.8268 79.2879 38.079 78.7692 39.3846 78.7692H88.6154C89.9211 78.7692 91.1733 79.2879 92.0965 80.2111C93.0198 81.1344 93.5385 82.3866 93.5385 83.6923C93.5385 84.998 93.0198 86.2502 92.0965 87.1734C91.1733 88.0967 89.9211 88.6154 88.6154 88.6154ZM86.1539 59.0769C84.6933 59.0769 83.2656 58.6438 82.0512 57.8324C80.8368 57.0209 79.8903 55.8676 79.3314 54.5183C78.7724 53.1689 78.6262 51.6841 78.9111 50.2516C79.1961 48.8192 79.8994 47.5033 80.9321 46.4706C81.9649 45.4378 83.2807 44.7345 84.7132 44.4496C86.1457 44.1646 87.6305 44.3109 88.9798 44.8698C90.3292 45.4287 91.4825 46.3752 92.2939 47.5896C93.1054 48.804 93.5385 50.2318 93.5385 51.6923C93.5385 53.6508 92.7604 55.5291 91.3756 56.914C89.9907 58.2989 88.1124 59.0769 86.1539 59.0769Z" fill="black"/>
</g>
<defs>
<clipPath id="clip0_174_196">
<rect width="128" height="128" fill="white"/>
</clipPath>
</defs>
</svg>
