<svg width="128" height="128" viewBox="0 0 128 128" fill="none" xmlns="http://www.w3.org/2000/svg">
<g clip-path="url(#clip0_174_198)">
<path d="M64 0C51.342 0 38.9683 3.75353 28.4435 10.7859C17.9188 17.8183 9.71574 27.8138 4.87174 39.5082C0.0277302 51.2027 -1.23968 64.071 1.22977 76.4858C3.69922 88.9005 9.79463 100.304 18.7452 109.255C27.6957 118.205 39.0995 124.301 51.5142 126.77C63.929 129.24 76.7973 127.972 88.4917 123.128C100.186 118.284 110.182 110.081 117.214 99.5565C124.246 89.0317 128 76.658 128 64C127.982 47.0316 121.233 30.7634 109.235 18.765C97.2366 6.76651 80.9684 0.0179189 64 0ZM41.8462 44.3077C43.3067 44.3077 44.7344 44.7408 45.9488 45.5522C47.1632 46.3636 48.1097 47.517 48.6687 48.8663C49.2276 50.2157 49.3738 51.7005 49.0889 53.133C48.804 54.5654 48.1006 55.8812 47.0679 56.914C46.0351 57.9468 44.7193 58.6501 43.2868 58.935C41.8544 59.22 40.3696 59.0737 39.0202 58.5148C37.6708 57.9559 36.5175 57.0094 35.7061 55.795C34.8947 54.5806 34.4616 53.1528 34.4616 51.6923C34.4616 49.7338 35.2396 47.8555 36.6245 46.4706C38.0093 45.0857 39.8876 44.3077 41.8462 44.3077ZM92.8738 81.2308C86.5415 92.1784 76.0185 98.4615 64 98.4615C51.9816 98.4615 41.4585 92.1846 35.1262 81.2308C34.77 80.6704 34.5308 80.0438 34.423 79.3886C34.3153 78.7335 34.3412 78.0633 34.4991 77.4184C34.6571 76.7735 34.9439 76.1672 35.3422 75.636C35.7406 75.1048 36.2423 74.6597 36.8171 74.3274C37.392 73.9951 38.0281 73.7825 38.6872 73.7025C39.3463 73.6224 40.0148 73.6765 40.6525 73.8615C41.2902 74.0465 41.8839 74.3586 42.3978 74.779C42.9117 75.1993 43.3353 75.7193 43.6431 76.3077C48.24 84.2523 55.4646 88.6154 64 88.6154C72.5354 88.6154 79.76 84.2461 84.3569 76.3077C84.6647 75.7193 85.0883 75.1993 85.6022 74.779C86.1162 74.3586 86.7098 74.0465 87.3475 73.8615C87.9852 73.6765 88.6537 73.6224 89.3128 73.7025C89.9719 73.7825 90.6081 73.9951 91.1829 74.3274C91.7578 74.6597 92.2595 75.1048 92.6578 75.636C93.0562 76.1672 93.3429 76.7735 93.5009 77.4184C93.6589 78.0633 93.6848 78.7335 93.577 79.3886C93.4692 80.0438 93.23 80.6704 92.8738 81.2308ZM86.1539 59.0769C84.6933 59.0769 83.2656 58.6438 82.0512 57.8324C80.8368 57.0209 79.8903 55.8676 79.3314 54.5183C78.7724 53.1689 78.6262 51.6841 78.9111 50.2516C79.1961 48.8192 79.8994 47.5033 80.9321 46.4706C81.9649 45.4378 83.2807 44.7345 84.7132 44.4496C86.1457 44.1646 87.6305 44.3109 88.9798 44.8698C90.3292 45.4287 91.4825 46.3752 92.2939 47.5896C93.1054 48.804 93.5385 50.2318 93.5385 51.6923C93.5385 53.6508 92.7604 55.5291 91.3756 56.914C89.9907 58.2989 88.1124 59.0769 86.1539 59.0769Z" fill="black"/>
</g>
<defs>
<clipPath id="clip0_174_198">
<rect width="128" height="128" fill="white"/>
</clipPath>
</defs>
</svg>
