<svg width="128" height="128" viewBox="0 0 128 128" fill="none" xmlns="http://www.w3.org/2000/svg">
<g clip-path="url(#clip0_174_200)">
<path d="M64 0C51.342 0 38.9683 3.75353 28.4435 10.7859C17.9188 17.8183 9.71574 27.8138 4.87174 39.5082C0.0277302 51.2027 -1.23968 64.071 1.22977 76.4858C3.69922 88.9005 9.79463 100.304 18.7452 109.255C27.6957 118.205 39.0995 124.301 51.5142 126.77C63.929 129.24 76.7973 127.972 88.4917 123.128C100.186 118.284 110.182 110.081 117.214 99.5565C124.246 89.0317 128 76.658 128 64C127.982 47.0316 121.233 30.7634 109.235 18.765C97.2366 6.76651 80.9684 0.0179189 64 0ZM34.4616 71.3846C34.4616 69.9241 34.8947 68.4963 35.7061 67.2819C36.5175 66.0675 37.6708 65.121 39.0202 64.5621C40.3696 64.0032 41.8544 63.8569 43.2868 64.1419C44.7193 64.4268 46.0351 65.1301 47.0679 66.1629C48.1006 67.1956 48.804 68.5115 49.0889 69.9439C49.3738 71.3764 49.2276 72.8612 48.6687 74.2106C48.1097 75.5599 47.1632 76.7132 45.9488 77.5247C44.7344 78.3361 43.3067 78.7692 41.8462 78.7692C39.8876 78.7692 38.0093 77.9912 36.6245 76.6063C35.2396 75.2214 34.4616 73.3431 34.4616 71.3846ZM82.8677 101.188C82.1445 102.274 81.0193 103.03 79.7395 103.287C78.4597 103.544 77.1301 103.283 76.0431 102.56C72.0431 99.9015 68.9231 98.4615 64 98.4615C59.0769 98.4615 55.9569 99.9015 51.9569 102.56C50.8699 103.256 49.5529 103.497 48.2897 103.232C47.0265 102.966 45.9181 102.215 45.2033 101.14C44.4884 100.066 44.2242 98.7532 44.4676 97.4856C44.711 96.2179 45.4425 95.0966 46.5046 94.3631C51.6923 90.9107 56.6523 88.6154 64 88.6154C71.3477 88.6154 76.3077 90.9107 81.4954 94.3631C82.5822 95.0862 83.3373 96.2114 83.5947 97.4912C83.852 98.771 83.5905 100.101 82.8677 101.188ZM86.1539 78.7692C84.6933 78.7692 83.2656 78.3361 82.0512 77.5247C80.8368 76.7132 79.8903 75.5599 79.3314 74.2106C78.7724 72.8612 78.6262 71.3764 78.9111 69.9439C79.1961 68.5115 79.8994 67.1956 80.9321 66.1629C81.9649 65.1301 83.2807 64.4268 84.7132 64.1419C86.1457 63.8569 87.6305 64.0032 88.9798 64.5621C90.3292 65.121 91.4825 66.0675 92.2939 67.2819C93.1054 68.4963 93.5385 69.9241 93.5385 71.3846C93.5385 73.3431 92.7604 75.2214 91.3756 76.6063C89.9907 77.9912 88.1124 78.7692 86.1539 78.7692ZM96.2708 43.4831L66.7323 63.1754C65.9233 63.7151 64.9726 64.0032 64 64.0032C63.0275 64.0032 62.0767 63.7151 61.2677 63.1754L31.7292 43.4831C31.191 43.1243 30.7288 42.6629 30.3688 42.1255C30.0089 41.588 29.7583 40.9849 29.6315 40.3506C29.5046 39.7163 29.5039 39.0633 29.6295 38.4287C29.755 37.7941 30.0043 37.1905 30.3631 36.6523C31.0877 35.5653 32.2145 34.8107 33.4955 34.5545C34.1298 34.4277 34.7829 34.427 35.4175 34.5525C36.052 34.678 36.6556 34.9273 37.1939 35.2861L64 53.1631L90.8062 35.3169C91.3444 34.9581 91.948 34.7088 92.5826 34.5833C93.2171 34.4577 93.8702 34.4584 94.5045 34.5853C95.1388 34.7122 95.7419 34.9627 96.2793 35.3226C96.8168 35.6826 97.2781 36.1449 97.6369 36.6831C97.9957 37.2213 98.245 37.8249 98.3706 38.4595C98.4961 39.094 98.4954 39.7471 98.3686 40.3814C98.2417 41.0157 97.9911 41.6188 97.6312 42.1562C97.2713 42.6937 96.809 43.155 96.2708 43.5138V43.4831Z" fill="black"/>
</g>
<defs>
<clipPath id="clip0_174_200">
<rect width="128" height="128" fill="white"/>
</clipPath>
</defs>
</svg>
