<svg width="176" height="176" viewBox="0 0 176 176" fill="none" xmlns="http://www.w3.org/2000/svg">
<g clip-path="url(#clip0_108_382)">
<path d="M98.0429 93.8711C96.4148 96.6057 93.767 98.5815 90.6821 99.3639C87.5972 100.146 84.3278 99.6712 81.5932 98.0431C78.8585 96.4149 76.8827 93.7672 76.1003 90.6822C75.3179 87.5973 75.793 84.3279 77.4212 81.5933C79.0493 78.8587 81.6971 76.8829 84.782 76.1005C87.8669 75.3181 91.1363 75.7932 93.8709 77.4213C96.6056 79.0495 98.5814 81.6972 99.3638 84.7822C100.146 87.8671 99.6711 91.1365 98.0429 93.8711Z" fill="#A7001E" fill-opacity="0.5"/>
<path fill-rule="evenodd" clip-rule="evenodd" d="M133.558 115.016C118.489 140.326 85.7578 148.627 60.4481 133.558C35.1383 118.489 26.837 85.758 41.906 60.4482C56.9749 35.1385 89.7063 26.8372 115.016 41.9061C122.82 46.5468 129.309 53.1043 133.867 60.9565C138.426 68.8086 140.903 77.6952 141.063 86.7732L151.922 68.5345C152.465 67.6229 153.347 66.9643 154.376 66.7035C155.404 66.4427 156.494 66.6011 157.405 67.1438C158.317 67.6865 158.975 68.5691 159.236 69.5974C159.497 70.6257 159.339 71.7155 158.796 72.627L133.558 115.016ZM60.6735 65.415C59.4581 64.6914 58.0051 64.4802 56.634 64.8279C55.2629 65.1757 54.0861 66.0538 53.3625 67.2692C52.6389 68.4846 52.4277 69.9377 52.7755 71.3087C53.1232 72.6798 54.0013 73.8566 55.2167 74.5802C56.4321 75.3038 57.8852 75.515 59.2562 75.1673C60.6273 74.8195 61.8041 73.9414 62.5277 72.726C63.2513 71.5106 63.4625 70.0576 63.1148 68.6865C62.767 67.3154 61.8889 66.1386 60.6735 65.415ZM72.7259 112.937C73.9413 113.66 74.8194 114.837 75.1671 116.208C75.5149 117.579 75.3037 119.032 74.5801 120.248C73.8565 121.463 72.6797 122.341 71.3086 122.689C69.9375 123.037 68.4845 122.825 67.2691 122.102C66.0537 121.378 65.1756 120.201 64.8278 118.83C64.4801 117.459 64.6913 116.006 65.4149 114.791C66.1385 113.575 67.3153 112.697 68.6864 112.349C70.0574 112.002 71.5105 112.213 72.7259 112.937ZM108.195 53.3626C109.41 54.0863 110.289 55.263 110.636 56.6341C110.984 58.0052 110.773 59.4583 110.049 60.6736C109.326 61.889 108.149 62.7672 106.778 63.1149C105.407 63.4626 103.954 63.2515 102.738 62.5278C101.523 61.8042 100.645 60.6274 100.297 59.2564C99.9493 57.8853 100.16 56.4322 100.884 55.2168C101.608 54.0015 102.784 53.1233 104.156 52.7756C105.527 52.4278 106.98 52.639 108.195 53.3626ZM112.936 102.738C113.66 101.523 114.837 100.645 116.208 100.297C117.579 99.9494 119.032 100.161 120.247 100.884C121.463 101.608 122.341 102.785 122.689 104.156C123.036 105.527 122.825 106.98 122.102 108.195C121.378 109.411 120.201 110.289 118.83 110.636C117.459 110.984 116.006 110.773 114.791 110.049C113.575 109.326 112.697 108.149 112.349 106.778C112.002 105.407 112.213 103.954 112.936 102.738ZM77.5006 104.917C82.0583 107.631 87.5072 108.422 92.6488 107.118C97.7903 105.814 102.203 102.521 104.917 97.9637C107.63 93.406 108.422 87.957 107.118 82.8155C105.814 77.6739 102.521 73.261 97.9636 70.5474C93.4059 67.8339 87.9569 67.042 82.8153 68.346C77.6738 69.65 73.2608 72.943 70.5473 77.5007C67.8337 82.0584 67.0418 87.5074 68.3458 92.6489C69.6498 97.7905 72.9429 102.203 77.5006 104.917Z" fill="#A7001E" fill-opacity="0.5"/>
</g>
<defs>
<clipPath id="clip0_108_382">
<rect width="128" height="128" fill="white" transform="translate(0 109.983) rotate(-59.2312)"/>
</clipPath>
</defs>
</svg>
