<svg width="149" height="501" viewBox="0 0 149 501" fill="none" xmlns="http://www.w3.org/2000/svg">
<g clip-path="url(#clip0_108_379)">
<path d="M74.2557 500.895H148.084L148.084 252.652L148.084 4.41016H74.2557L0.427612 4.41016L0.427612 252.652L0.427612 500.895L74.2557 500.895ZM11.5214 484.527C11.8729 484.215 13.9042 484.098 17.8495 484.176L23.6698 484.293L23.787 488.16C23.8651 490.66 23.7479 492.184 23.4354 492.535C22.8885 493.199 12.9276 493.316 11.7167 492.691C11.0526 492.34 10.9745 491.832 10.9745 488.629C10.9745 485.973 11.1307 484.84 11.5214 484.527ZM11.4432 459.566C12.1464 458.863 22.8495 458.902 23.4354 459.645C23.7479 459.996 23.8651 461.52 23.787 464.02L23.6698 467.887L17.8495 468.004C13.9042 468.082 11.8729 467.965 11.5214 467.652C10.8182 467.066 10.7401 460.27 11.4432 459.566ZM11.287 434.957C11.5604 434.606 13.0839 434.488 17.6542 434.566L23.6698 434.684L23.787 438.59C23.8651 441.91 23.787 442.574 23.201 442.965C22.7714 443.316 20.9354 443.473 17.3807 443.473C10.8964 443.473 10.9745 443.512 10.9745 438.863C10.9745 436.988 11.1307 435.231 11.287 434.957ZM11.4432 409.957C12.1073 409.293 22.7323 409.293 23.3964 409.957C23.7089 410.27 23.8651 411.754 23.8651 413.981C23.8651 416.207 23.7089 417.691 23.3964 418.004C23.0839 418.316 21.1698 418.473 17.4198 418.473C13.6698 418.473 11.7557 418.316 11.4432 418.004C10.8182 417.379 10.8182 410.582 11.4432 409.957ZM11.5995 385.113C12.3807 384.293 22.1464 384.215 23.201 384.996C23.787 385.387 23.8651 386.051 23.787 389.371L23.6698 393.277L17.6542 393.395C13.0839 393.473 11.5604 393.356 11.287 393.004C11.1307 392.731 10.9745 390.973 10.9745 389.098C10.9745 386.52 11.1307 385.582 11.5995 385.113ZM11.4432 360.348C11.951 359.84 22.0292 359.645 23.2401 360.113C23.7479 360.309 23.8651 361.051 23.8651 364.137C23.8651 366.559 23.7089 368.082 23.3964 368.395C22.7323 369.059 12.1073 369.059 11.4432 368.395C10.8182 367.77 10.8182 360.973 11.4432 360.348ZM11.7167 335.27C12.9276 334.645 22.8885 334.762 23.4354 335.426C23.7479 335.777 23.8651 337.301 23.787 339.801L23.6698 343.668L17.8495 343.785C13.9042 343.863 11.8729 343.746 11.5214 343.434C11.1307 343.121 10.9745 341.988 10.9745 339.332C10.9745 336.129 11.0526 335.621 11.7167 335.27ZM11.5214 310.699C11.8729 310.387 13.9042 310.27 17.8495 310.348L23.6698 310.465L23.787 314.332C23.8651 316.832 23.7479 318.356 23.4354 318.707C22.8495 319.449 12.1464 319.488 11.4432 318.785C10.7401 318.082 10.8182 311.285 11.5214 310.699ZM11.4432 285.738C12.1464 285.035 22.8495 285.074 23.4354 285.816C23.7479 286.168 23.8651 287.691 23.787 290.191L23.6698 294.059L17.8495 294.176C13.9042 294.254 11.8729 294.137 11.5214 293.824C10.8182 293.238 10.7401 286.441 11.4432 285.738ZM11.5214 261.09C11.8729 260.777 13.9042 260.66 17.8495 260.738L23.6698 260.855L23.787 264.762C23.8651 268.082 23.787 268.746 23.201 269.137C22.3807 269.762 12.8495 269.84 11.7167 269.254C11.0526 268.902 10.9745 268.395 10.9745 265.191C10.9745 262.535 11.1307 261.402 11.5214 261.09ZM11.4432 236.129C11.7557 235.816 13.6698 235.66 17.4198 235.66C21.1698 235.66 23.0839 235.816 23.3964 236.129C23.7089 236.441 23.8651 237.965 23.8651 240.387C23.8651 243.473 23.7479 244.215 23.2401 244.41C22.0292 244.879 11.951 244.684 11.4432 244.176C10.8182 243.551 10.8182 236.754 11.4432 236.129ZM11.287 211.52C11.5604 211.168 13.0839 211.051 17.6542 211.129L23.6698 211.246L23.787 215.152C23.8651 218.473 23.787 219.137 23.201 219.527C22.7714 219.879 20.9354 220.035 17.3807 220.035C10.8964 220.035 10.9745 220.074 10.9745 215.426C10.9745 213.551 11.1307 211.793 11.287 211.52ZM11.4432 186.52C11.7557 186.207 13.6698 186.051 17.4198 186.051C21.1698 186.051 23.0839 186.207 23.3964 186.52C23.7089 186.832 23.8651 188.316 23.8651 190.543C23.8651 192.77 23.7089 194.254 23.3964 194.566C23.0839 194.879 21.1698 195.035 17.4198 195.035C13.6698 195.035 11.7557 194.879 11.4432 194.566C10.8182 193.941 10.8182 187.145 11.4432 186.52ZM11.5995 161.676C12.3807 160.855 22.1464 160.777 23.201 161.559C23.787 161.949 23.8651 162.613 23.787 165.934L23.6698 169.84L17.6542 169.957C13.0839 170.035 11.5604 169.918 11.287 169.566C11.1307 169.293 10.9745 167.535 10.9745 165.66C10.9745 163.082 11.1307 162.145 11.5995 161.676ZM11.5214 136.871C11.8729 136.559 13.9042 136.441 17.8495 136.52L23.6698 136.637L23.787 140.504C23.8651 143.004 23.7479 144.527 23.4354 144.879C22.8495 145.621 12.1464 145.66 11.4432 144.957C10.7401 144.254 10.8182 137.457 11.5214 136.871ZM11.7167 111.832C12.9276 111.207 22.8885 111.324 23.4354 111.988C23.7479 112.34 23.8651 113.863 23.787 116.363L23.6698 120.23L17.8495 120.348C13.9042 120.426 11.8729 120.309 11.5214 119.996C11.1307 119.684 10.9745 118.551 10.9745 115.895C10.9745 112.691 11.0526 112.184 11.7167 111.832ZM11.5214 87.2617C11.8729 86.9492 13.9042 86.8321 17.8495 86.9102L23.6698 87.0274L23.787 90.8946C23.8651 93.3946 23.7479 94.918 23.4354 95.2696C22.8885 95.9336 12.9276 96.0508 11.7167 95.4258C11.0526 95.0742 10.9745 94.5664 10.9745 91.3633C10.9745 88.7071 11.1307 87.5742 11.5214 87.2617ZM11.4432 62.3008C12.1464 61.5977 22.8495 61.6367 23.4354 62.3789C23.7479 62.7305 23.8651 64.2539 23.787 66.7539L23.6698 70.6211L17.8495 70.7383C13.9042 70.8164 11.8729 70.6992 11.5214 70.3867C10.8182 69.8008 10.7401 63.0039 11.4432 62.3008ZM11.287 37.6914C11.5604 37.3399 13.0839 37.2227 17.6542 37.3008L23.6698 37.418L23.787 41.3242C23.8651 44.6446 23.787 45.3086 23.201 45.6992C22.7714 46.0508 20.9354 46.2071 17.3807 46.2071C10.8964 46.2071 10.9745 46.2461 10.9745 41.5977C10.9745 39.7227 11.1307 37.9649 11.287 37.6914ZM11.4432 12.6914C12.1073 12.0273 22.7323 12.0273 23.3964 12.6914C23.7089 13.0039 23.8651 14.4883 23.8651 16.7148C23.8651 18.9414 23.7089 20.4258 23.3964 20.7383C22.7323 21.4024 12.1073 21.4024 11.4432 20.7383C10.8182 20.1133 10.8182 13.3164 11.4432 12.6914ZM74.0604 381.363H118.006L118.006 439.957L118.006 498.551H74.1385C49.9979 498.551 30.1542 498.473 30.076 498.395C29.9979 498.316 29.9589 471.949 30.037 439.801L30.1151 381.363H74.0604ZM74.0995 257.145H118.006L117.928 315.816L117.81 374.527L73.9823 374.645L30.1151 374.723L30.037 316.246C29.9589 284.059 29.9589 257.613 30.037 257.418C30.1151 257.262 49.9198 257.145 74.0995 257.145ZM73.9432 133.121H117.81L117.81 191.715L117.81 250.309L74.2557 250.426C50.3104 250.465 30.5057 250.426 30.3104 250.348C30.037 250.27 29.9589 230.426 29.9979 191.676L30.1151 133.121H73.9432ZM73.9432 8.90234H117.81L117.81 67.4961L117.81 126.09L74.2557 126.207C50.3104 126.246 30.5057 126.207 30.3104 126.129C30.037 126.051 29.9589 106.207 29.9979 67.4571L30.1151 8.90234H73.9432ZM125.506 484.566C125.818 484.254 127.771 484.098 131.756 484.098C138.553 484.098 138.318 483.941 138.318 488.629C138.318 493.043 138.279 493.082 131.639 493.082C124.959 493.082 125.037 493.16 125.037 488.434C125.037 486.324 125.193 484.879 125.506 484.566ZM125.662 459.723C126.131 459.215 127.264 459.098 131.678 459.098C138.357 459.098 138.318 459.059 138.318 463.434C138.318 468.238 138.553 468.082 131.756 468.082C127.771 468.082 125.818 467.926 125.506 467.613C124.764 466.871 124.881 460.465 125.662 459.723ZM125.506 434.957C125.818 434.645 127.771 434.488 131.756 434.488C138.514 434.488 138.318 434.371 138.318 438.863C138.318 443.395 138.24 443.473 131.795 443.473C125.037 443.473 125.037 443.473 125.037 438.785C125.037 436.715 125.232 435.231 125.506 434.957ZM125.428 410.231C125.818 409.566 126.326 409.488 131.678 409.488C138.553 409.488 138.318 409.332 138.318 413.981C138.318 418.629 138.553 418.473 131.678 418.473C126.56 418.473 125.818 418.395 125.467 417.77C124.92 416.91 124.92 411.207 125.428 410.231ZM125.896 385.113C126.599 384.606 127.889 384.488 131.756 384.488C138.084 384.488 138.318 384.645 138.318 389.02C138.318 393.629 138.514 393.473 131.756 393.473C127.771 393.473 125.818 393.316 125.506 393.004C125.193 392.691 125.037 391.246 125.037 389.137C125.037 386.051 125.115 385.66 125.896 385.113ZM125.428 360.621C125.818 359.957 126.326 359.879 131.678 359.879C138.553 359.879 138.318 359.723 138.318 364.527C138.318 368.902 138.396 368.863 131.482 368.863C126.521 368.863 125.818 368.785 125.467 368.16C124.92 367.301 124.92 361.598 125.428 360.621ZM125.662 335.504C126.131 334.996 127.264 334.879 131.56 334.879C138.279 334.879 138.318 334.918 138.318 339.254C138.318 344.02 138.553 343.863 131.756 343.863C127.771 343.863 125.818 343.707 125.506 343.395C124.764 342.652 124.881 336.246 125.662 335.504ZM125.506 310.738C125.818 310.426 127.771 310.27 131.756 310.27C138.553 310.27 138.318 310.113 138.318 314.918C138.318 319.293 138.357 319.254 131.678 319.254C124.92 319.254 125.037 319.332 125.037 314.606C125.037 312.496 125.193 311.051 125.506 310.738ZM125.662 285.895C126.131 285.387 127.264 285.27 131.678 285.27C138.357 285.27 138.318 285.231 138.318 289.606C138.318 294.41 138.553 294.254 131.756 294.254C127.771 294.254 125.818 294.098 125.506 293.785C124.764 293.043 124.881 286.637 125.662 285.895ZM125.506 261.129C125.818 260.816 127.771 260.66 131.756 260.66C138.553 260.66 138.318 260.504 138.318 265.191C138.318 269.606 138.279 269.645 131.639 269.645C124.959 269.645 125.037 269.723 125.037 264.996C125.037 262.887 125.193 261.441 125.506 261.129ZM125.428 236.402C125.818 235.738 126.326 235.66 131.482 235.66C138.396 235.66 138.318 235.621 138.318 239.996C138.318 244.801 138.553 244.645 131.678 244.645C126.56 244.645 125.818 244.566 125.467 243.941C124.92 243.082 124.92 237.379 125.428 236.402ZM125.506 211.52C125.818 211.207 127.771 211.051 131.756 211.051C138.514 211.051 138.318 210.895 138.318 215.504C138.318 219.879 138.084 220.035 131.756 220.035C125.115 220.035 125.037 219.996 125.037 215.387C125.037 213.277 125.193 211.832 125.506 211.52ZM125.428 186.793C125.818 186.129 126.326 186.051 131.678 186.051C138.553 186.051 138.318 185.895 138.318 190.699C138.318 195.074 138.396 195.035 131.482 195.035C126.521 195.035 125.818 194.957 125.467 194.332C124.92 193.473 124.92 187.77 125.428 186.793ZM125.662 161.676C126.131 161.168 127.264 161.051 131.678 161.051C138.24 161.051 138.318 161.09 138.318 165.66C138.318 170.152 138.514 170.035 131.756 170.035C127.771 170.035 125.818 169.879 125.506 169.566C124.764 168.824 124.881 162.418 125.662 161.676ZM125.506 136.91C125.818 136.598 127.771 136.441 131.756 136.441C138.553 136.441 138.318 136.285 138.318 141.09C138.318 145.465 138.357 145.426 131.678 145.426C124.92 145.426 125.037 145.504 125.037 140.777C125.037 138.668 125.193 137.223 125.506 136.91ZM125.662 112.066C126.131 111.559 127.264 111.441 131.56 111.441C138.279 111.441 138.318 111.48 138.318 115.816C138.318 120.582 138.553 120.426 131.756 120.426C127.771 120.426 125.818 120.27 125.506 119.957C124.764 119.215 124.881 112.809 125.662 112.066ZM125.506 87.3008C125.818 86.9883 127.771 86.8321 131.756 86.8321C138.553 86.8321 138.318 86.6758 138.318 91.3633C138.318 95.7774 138.279 95.8164 131.639 95.8164C124.959 95.8164 125.037 95.8946 125.037 91.168C125.037 89.0586 125.193 87.6133 125.506 87.3008ZM125.662 62.4571C126.131 61.9492 127.264 61.8321 131.678 61.8321C138.357 61.8321 138.318 61.793 138.318 66.168C138.318 70.9727 138.553 70.8164 131.756 70.8164C127.771 70.8164 125.818 70.6602 125.506 70.3477C124.764 69.6055 124.881 63.1992 125.662 62.4571ZM125.506 37.6914C125.818 37.3789 127.771 37.2227 131.756 37.2227C138.514 37.2227 138.318 37.0664 138.318 41.6758C138.318 46.0508 138.123 46.2071 131.599 46.2071C125.037 46.2071 125.037 46.2071 125.037 41.5196C125.037 39.4492 125.232 37.9649 125.506 37.6914ZM125.428 12.9648C125.818 12.3008 126.326 12.2227 131.678 12.2227C138.553 12.2227 138.318 12.0664 138.318 16.7148C138.318 21.3633 138.553 21.2071 131.678 21.2071C126.56 21.2071 125.818 21.1289 125.467 20.5039C124.92 19.6445 124.92 13.9414 125.428 12.9648Z" fill="#A7001E" fill-opacity="0.5"/>
</g>
<defs>
<clipPath id="clip0_108_379">
<rect width="500" height="147.656" fill="white" transform="matrix(0 -1 1 0 0.427612 500.895)"/>
</clipPath>
</defs>
</svg>
