<svg width="128" height="128" viewBox="0 0 128 128" fill="none" xmlns="http://www.w3.org/2000/svg">
<g clip-path="url(#clip0_1_123)">
<path d="M47.34 94.6799C34.1091 94.6799 22.9125 90.0965 13.7504 80.9295C4.58834 71.7625 0.00485538 60.566 0 47.34C0 34.1091 4.58348 22.9125 13.7504 13.7504C22.9174 4.58834 34.1139 0.00485538 47.34 0C60.5709 0 71.7698 4.58348 80.9368 13.7504C90.1037 22.9174 94.6848 34.1139 94.6799 47.34C94.6799 52.6809 93.8302 57.7183 92.1309 62.4523C90.4315 67.1863 88.1252 71.3741 85.2119 75.0156L125.997 115.801C127.332 117.136 128 118.835 128 120.899C128 122.963 127.332 124.662 125.997 125.997C124.662 127.332 122.963 128 120.899 128C118.835 128 117.136 127.332 115.801 125.997L75.0156 85.2119C71.3741 88.1252 67.1863 90.4315 62.4523 92.1309C57.7183 93.8302 52.6809 94.6799 47.34 94.6799ZM47.34 80.1138C56.4438 80.1138 64.1833 76.9287 70.5584 70.5584C76.9335 64.1881 80.1187 56.4487 80.1138 47.34C80.1138 38.2361 76.9287 30.4991 70.5584 24.1288C64.1881 17.7586 56.4487 14.571 47.34 14.5661C38.2361 14.5661 30.4991 17.7537 24.1288 24.1288C17.7586 30.5039 14.571 38.241 14.5661 47.34C14.5661 56.4438 17.7537 64.1833 24.1288 70.5584C30.5039 76.9335 38.241 80.1187 47.34 80.1138Z" fill="black"/>
</g>
<defs>
<clipPath id="clip0_1_123">
<rect width="128" height="128" fill="white"/>
</clipPath>
</defs>
</svg>
