<svg width="128" height="128" viewBox="0 0 128 128" fill="none" xmlns="http://www.w3.org/2000/svg">
<path d="M86 60C86 64.3512 84.7097 68.6047 82.2923 72.2225C79.8749 75.8404 76.439 78.6602 72.419 80.3253C68.3991 81.9905 63.9756 82.4262 59.708 81.5773C55.4404 80.7284 51.5204 78.6331 48.4436 75.5564C45.3669 72.4796 43.2716 68.5596 42.4227 64.292C41.5738 60.0244 42.0095 55.6009 43.6746 51.581C45.3398 47.561 48.1596 44.1251 51.7774 41.7077C55.3953 39.2903 59.6488 38 64 38C69.8327 38.0066 75.4247 40.3266 79.549 44.451C83.6734 48.5753 85.9934 54.1673 86 60ZM116 64C116 74.2846 112.95 84.3383 107.236 92.8896C101.523 101.441 93.4013 108.106 83.8995 112.042C74.3978 115.977 63.9423 117.007 53.8553 115.001C43.7683 112.994 34.5028 108.042 27.2304 100.77C19.9581 93.4972 15.0056 84.2317 12.9992 74.1447C10.9927 64.0577 12.0225 53.6022 15.9583 44.1005C19.894 34.5987 26.559 26.4774 35.1103 20.7636C43.6617 15.0497 53.7154 12 64 12C77.7868 12.0146 91.0047 17.4978 100.753 27.2465C110.502 36.9953 115.985 50.2132 116 64ZM108 64C107.994 58.0777 106.793 52.2174 104.47 46.7698C102.147 41.3221 98.7486 36.399 94.479 32.2947C90.2095 28.1904 85.1561 24.9893 79.6211 22.8828C74.086 20.7763 68.183 19.8078 62.265 20.035C38.715 20.945 19.935 40.56 20 64.125C20.0226 74.8526 23.9791 85.1994 31.12 93.205C34.0281 88.987 37.7222 85.3694 42 82.55C42.3647 82.3091 42.7983 82.1943 43.2344 82.2232C43.6706 82.2521 44.0852 82.4231 44.415 82.71C49.8509 87.4118 56.7978 89.9993 63.985 89.9993C71.1722 89.9993 78.1191 87.4118 83.555 82.71C83.8848 82.4231 84.2994 82.2521 84.7355 82.2232C85.1717 82.1943 85.6053 82.3091 85.97 82.55C90.2532 85.3678 93.9525 88.9856 96.865 93.205C104.041 85.1702 108.005 74.7729 108 64Z" fill="black"/>
</svg>
