<svg width="128" height="128" viewBox="0 0 128 128" fill="none" xmlns="http://www.w3.org/2000/svg">
<path d="M126.354 125.48C125.928 126.247 125.316 126.883 124.579 127.325C123.842 127.767 123.006 128 122.156 128H5.84145C4.99115 127.999 4.15604 127.766 3.41998 127.323C2.68393 126.88 2.07283 126.244 1.64805 125.478C1.22328 124.712 0.999782 123.844 1 122.959C1.00022 122.075 1.22415 121.207 1.6493 120.441C10.8757 103.855 25.0939 91.9626 41.6868 86.3249C33.4792 81.2443 27.1024 73.5028 23.5357 64.2892C19.9689 55.0755 19.4095 44.8992 21.9433 35.323C24.4771 25.7467 29.964 17.3001 37.5614 11.2802C45.1588 5.26029 54.4466 2 63.9985 2C73.5504 2 82.8382 5.26029 90.4356 11.2802C98.033 17.3001 103.52 25.7467 106.054 35.323C108.587 44.8992 108.028 55.0755 104.461 64.2892C100.895 73.5028 94.5178 81.2443 86.3102 86.3249C102.903 91.9626 117.121 103.855 126.348 120.441C126.774 121.207 126.999 122.075 127 122.96C127.001 123.844 126.778 124.714 126.354 125.48Z" fill="black"/>
</svg>
