<svg width="24" height="24" viewBox="0 0 24 24" fill="none" xmlns="http://www.w3.org/2000/svg">
<g clip-path="url(#clip0_187_660)">
<path d="M23.6913 23.5276C23.6116 23.6712 23.4968 23.7905 23.3586 23.8735C23.2204 23.9564 23.0637 24 22.9042 24H1.09527C0.93584 23.9998 0.779257 23.956 0.641247 23.873C0.503236 23.79 0.388655 23.6708 0.30901 23.5271C0.229365 23.3835 0.187459 23.2207 0.1875 23.0549C0.187541 22.8891 0.229527 22.7263 0.309243 22.5827C2.03919 19.4729 4.7051 17.243 7.81627 16.1859C6.27734 15.2333 5.08169 13.7818 4.41293 12.0542C3.74417 10.3267 3.63928 8.4186 4.11437 6.62305C4.58946 4.82751 5.61825 3.24376 7.04277 2.11503C8.46728 0.986304 10.2087 0.375 11.9997 0.375C13.7907 0.375 15.5322 0.986304 16.9567 2.11503C18.3812 3.24376 19.41 4.82751 19.8851 6.62305C20.3601 8.4186 20.2553 10.3267 19.5865 12.0542C18.9177 13.7818 17.7221 15.2333 16.1832 16.1859C19.2943 17.243 21.9602 19.4729 23.6902 22.5827C23.7701 22.7262 23.8123 22.8891 23.8125 23.055C23.8127 23.2208 23.7709 23.3838 23.6913 23.5276Z" fill="#A7001E"/>
</g>
<defs>
<clipPath id="clip0_187_660">
<rect width="24" height="24" fill="white"/>
</clipPath>
</defs>
</svg>
