<svg width="128" height="128" viewBox="0 0 128 128" fill="none" xmlns="http://www.w3.org/2000/svg">
<g clip-path="url(#clip0_26_12)">
<path d="M127.158 116.735C119.033 101.954 106.346 90.4358 91.139 84.0362C98.7013 78.157 104.287 69.9603 107.106 60.6073C109.924 51.2542 109.833 41.219 106.843 31.9231C103.854 22.6272 98.1189 14.5419 90.4503 8.8125C82.7817 3.08307 73.5684 0 64.1155 0C54.6626 0 45.4493 3.08307 37.7807 8.8125C30.112 14.5419 24.3769 22.6272 21.3876 31.9231C18.3984 41.219 18.3065 51.2542 21.125 60.6073C23.9436 69.9603 29.5297 78.157 37.092 84.0362C21.8849 90.4358 9.19766 101.954 1.07258 116.735C0.569121 117.575 0.233568 118.51 0.0858687 119.486C-0.0618302 120.463 -0.0186598 121.46 0.212814 122.418C0.444288 123.377 0.85934 124.278 1.43329 125.067C2.00725 125.856 2.72839 126.517 3.55385 127.011C4.3793 127.506 5.29222 127.823 6.23833 127.944C7.18443 128.066 8.14442 127.988 9.06121 127.718C9.978 127.447 10.8329 126.987 11.575 126.367C12.3172 125.747 12.9314 124.978 13.3813 124.107C24.1196 104.867 43.0834 93.392 64.1155 93.392C85.1476 93.392 104.111 104.873 114.85 124.107C115.825 125.732 117.371 126.9 119.162 127.365C120.953 127.83 122.848 127.554 124.446 126.597C126.045 125.64 127.221 124.075 127.727 122.235C128.234 120.395 128.03 118.423 127.158 116.735ZM33.2993 46.7052C33.2993 40.3874 35.1066 34.2114 38.4927 28.9583C41.8789 23.7052 46.6917 19.6109 52.3226 17.1932C57.9536 14.7754 64.1497 14.1429 70.1274 15.3754C76.1052 16.608 81.5961 19.6503 85.9059 24.1177C90.2156 28.5851 93.1506 34.2769 94.3396 40.4733C95.5287 46.6698 94.9184 53.0926 92.586 58.9295C90.2536 64.7664 86.3038 69.7553 81.2361 73.2653C76.1684 76.7753 70.2104 78.6488 64.1155 78.6488C55.9454 78.639 48.1126 75.2704 42.3355 69.282C36.5584 63.2935 33.3087 55.1742 33.2993 46.7052Z" fill="black"/>
</g>
<defs>
<clipPath id="clip0_26_12">
<rect width="128" height="128" fill="white"/>
</clipPath>
</defs>
</svg>
